# xmcd
#
# Track frame offsets:
# 150
# 13237
# 26342
# 40865
# 53150
# 66530
# 82982
# 100452
# 114445
# 129687
# 138572
# 156097
# 171410
# 184985
# 199197
# 213000
#
# Disc length: 3047 seconds
#
#
# Revision: 0
# Processed by: cddbd v1.5.1PL2 Copyright (c) Steve Scherf et al.
# Submitted via: FreeRIP 2.941 
#
DISCID=e60be510
DTITLE=Norfolk Sourthen Lawmen - Just Trains
DYEAR=1900
DGENRE=
TTITLE0=Fireball Mail
TTITLE1=Waitin' for a train
TTITLE2=Chattanooga Choo-Choo
TTITLE3=Mississippi Rail
TTITLE4=Freight Train
TTITLE5=Hobo Blues
TTITLE6=Big Iron Horse
TTITLE7=Big Black Train
TTITLE8=Raised by the Railroad Line
TTITLE9=Georgia Mail
TTITLE10=Train Make me love some
TTITLE11=Lonesome Whistle
TTITLE12=I'm Movin' on
TTITLE13=Blue Railroad Train
TTITLE14=Daddy Loved Trains
TTITLE15=Last Train to Heaven
EXTD=
EXTT0=
EXTT1=
EXTT2=
EXTT3=
EXTT4=
EXTT5=
EXTT6=
EXTT7=
EXTT8=
EXTT9=
EXTT10=
EXTT11=
EXTT12=
EXTT13=
EXTT14=
EXTT15=
PLAYORDER=
